:SAMPLES-PER-SECOND 30
:FULLY-SPECIFIED
:DEGREES
1
root  87.0677 39.3178 -0.359617 -85.6889 -86.5527 85.9026
RightUpLeg  3.68238 -7.73927 -2.77001
RightLeg  4.904 -0.681484 0.459196
RightFoot  -7.82796 0.0331166 -2.88435
RightToes  -4.65663e-010 0 -3.6325e-017
Spine  0.713921 0.195373 0.334246
Spine1  5.39193 0.728713 -2.17903
HEad  -12.7961 -2.2762 -1.42162
LeftShoulder1  -0.589458 5.0108 -32.962
LeftArm  8.28537 10.2779 -39.4044
LeftForeArm  23.0509 -18.0929 -5.85821
LeftHand  -0.113673 8.1289 -2.71947
RightShoulder  -1.14602 -6.5397 31.2149
RightArm  19.8459 -4.89615 42.6888
RightForeArm  11.837 14.5813 6.2685
RightHand  -0.0298529 4.70758 -0.63767
LeftUpLeg  1.31294 4.24045 -2.29651
LeftLeg  1.5164 2.13194 0.0613908
LeftFoot  -2.75966 -0.11273 1.75128
LeftToes  8.74931e-010 -1.05764e-010 1.2659e-011
2
root  87.0322 39.3279 -0.371223 -87.678 -86.5258 87.8906
RightUpLeg  3.61207 -7.80521 -2.83706
RightLeg  5.13288 -0.531736 0.501704
RightFoot  -7.79215 0.0313314 -2.85655
RightToes  -4.65663e-010 0 -3.6325e-017
Spine  0.533832 0.2301 0.278636
Spine1  5.76303 0.728918 -1.99928
HEad  -17.0028 0.381644 -1.84395
LeftShoulder1  -0.577035 4.98151 -32.8988
LeftArm  9.08227 10.0609 -39.6428
LeftForeArm  22.347 -18.6721 -5.58802
LeftHand  -0.146887 8.92171 -3.23561
RightShoulder  -1.14855 -6.545 31.2313
RightArm  19.2906 -5.15518 42.2467
RightForeArm  13.1705 13.8513 6.43479
RightHand  -0.0219494 3.7674 -0.534597
LeftUpLeg  1.48262 4.36878 -2.25143
LeftLeg  1.32216 2.1139 -0.0668129
LeftFoot  -2.58702 -0.135949 2.11235
LeftToes  8.74931e-010 -1.05764e-010 1.2659e-011
3
root  86.9769 39.3217 -0.389492 -88.2839 -86.4582 88.4843
RightUpLeg  3.65999 -8.02276 -2.99992
RightLeg  5.26552 -0.294669 0.665269
RightFoot  -7.84295 0.03849 -2.96806
RightToes  -4.65663e-010 0 -3.6325e-017
Spine  0.596929 0.181534 0.144768
Spine1  5.75236 0.632314 -1.75459
HEad  -15.3961 0.395671 -2.0451
LeftShoulder1  -0.593803 5.02495 -32.8848
LeftArm  9.84945 9.79482 -39.8179
LeftForeArm  21.471 -19.1466 -5.39266
LeftHand  -0.192413 11.095 -2.56022
RightShoulder  -1.18828 -6.62981 31.4849
RightArm  19.2878 -5.56087 41.4079
RightForeArm  13.7993 13.2024 6.67162
RightHand  -0.044075 3.86153 -0.827363
LeftUpLeg  1.52357 4.06903 -2.46241
LeftLeg  1.37872 2.55495 0.218803
LeftFoot  -2.60905 -0.118901 1.84723
LeftToes  8.74931e-010 -1.05764e-010 1.2659e-011
4
root  86.9529 39.3194 -0.445691 -88.6111 -86.4284 88.828
RightUpLeg  3.61775 -7.98362 -2.93785
RightLeg  5.37728 -0.31341 0.660313
RightFoot  -7.87022 0.0359468 -2.96208
RightToes  -4.65663e-010 0 -3.6325e-017
Spine  1.1374 0.0319528 0.119943
Spine1  5.22333 0.458122 -1.72042
HEad  -15.474 0.168213 -2.10858
LeftShoulder1  -0.562154 4.94714 -32.7978
LeftArm  10.2928 9.80215 -39.7095
LeftForeArm  21.5731 -19.6117 -5.14742
LeftHand  -0.138283 9.01621 -2.55566
RightShoulder  -1.19501 -6.65766 31.3623
RightArm  18.5237 -6.24657 41.2572
RightForeArm  14.8488 12.6949 6.68499
RightHand  -0.0271745 2.70062 -0.601726
LeftUpLeg  1.51283 4.18546 -2.34708
LeftLeg  1.43982 2.45681 0.124008
LeftFoot  -2.5539 -0.123023 1.91134
LeftToes  8.74931e-010 -1.05764e-010 1.2659e-011
5
root  86.9171 39.3043 -0.490201 -91.3377 -86.3233 91.5419
RightUpLeg  3.49616 -7.85262 -2.90055
RightLeg  5.73456 -0.340909 0.499909
RightFoot  -8.20548 0.0238731 -2.89889
RightToes  -4.65663e-010 0 -3.6325e-017
Spine  1.25394 0.0199376 0.0631406
Spine1  5.26852 0.439891 -1.70968
HEad  -15.4182 0.486083 -2.30051
LeftShoulder1  -0.545815 4.91245 -32.6015
LeftArm  10.9733 9.85725 -39.8178
LeftForeArm  20.2307 -20.4761 -4.76554
LeftHand  -0.0695722 7.90534 -1.27791
RightShoulder  -1.13919 -6.52155 31.2133
RightArm  18.1515 -7.01871 40.9406
RightForeArm  15.4239 12.7562 6.53688
RightHand  0.0473454 3.58117 0.365366
LeftUpLeg  1.53468 4.08242 -2.46131
LeftLeg  1.56388 2.74247 0.264117
LeftFoot  -2.67324 -0.114896 1.78497
LeftToes  8.74931e-010 -1.05764e-010 1.2659e-011
6
root  86.8705 39.2979 -0.543699 -91.3214 -86.3 91.6331
RightUpLeg  3.39891 -7.78123 -2.80686
RightLeg  5.86845 -0.400513 0.462568
RightFoot  -8.3456 0.0216424 -2.98463
RightToes  -4.65663e-010 0 -3.6325e-017
Spine  1.07967 -0.0307539 0.0526164
Spine1  5.53766 0.384503 -1.70125
HEad  -15.6524 1.0394 -2.40249
LeftShoulder1  -0.575292 4.98738 -32.6253
LeftArm  10.7906 9.32805 -39.9195
LeftForeArm  19.584 -20.5926 -4.72859
LeftHand  -0.110586 10.0855 -1.26723
RightShoulder  -1.17916 -6.61783 31.3374
RightArm  18.1447 -7.25624 40.6463
RightForeArm  14.7365 12.4489 6.66063
RightHand  0.0281345 4.71961 0.0221857
LeftUpLeg  1.4772 4.2709 -2.30364
LeftLeg  1.6323 2.5242 0.105208
LeftFoot  -2.76813 -0.118467 1.8405
LeftToes  8.74931e-010 -1.05764e-010 1.2659e-011
7
root  86.853 39.2858 -0.616689 -93.5115 -86.2909 93.9427
RightUpLeg  3.37209 -7.60506 -2.61281
RightLeg  5.66113 -0.540419 0.393532
RightFoot  -8.41047 0.025407 -3.21316
RightToes  -4.65663e-010 0 -3.6325e-017
Spine  1.42394 -0.0154987 -0.145196
Spine1  5.2055 0.315123 -1.37452
HEad  -16.0926 0.71564 -2.51683
LeftShoulder1  -0.61087 5.07501 -32.725
LeftArm  10.0297 8.93747 -40.0049
LeftForeArm  20.0142 -20.3781 -4.80233
LeftHand  -0.0738749 9.21711 -0.709696
RightShoulder  -1.15461 -6.56216 31.2206
RightArm  18.655 -7.70793 40.6296
RightForeArm  14.6493 12.8782 6.58903
RightHand  0.0170285 3.79672 -0.044503
LeftUpLeg  1.27446 4.42559 -2.12911
LeftLeg  1.87532 2.48531 0.0102728
LeftFoot  -2.90814 -0.116505 1.81851
LeftToes  8.74931e-010 -1.05764e-010 1.2659e-011
8
root  86.7855 39.2705 -0.660901 -90.4372 -86.1101 90.9631
RightUpLeg  3.47725 -7.73011 -2.74599
RightLeg  5.54983 -0.60296 0.390095
RightFoot  -8.68141 0.0161608 -3.22225
RightToes  -4.65663e-010 0 -3.6325e-017
Spine  1.51458 -0.176968 -0.059052
Spine1  5.00643 0.201991 -1.52626
HEad  -16.1229 1.03151 -2.75983
LeftShoulder1  -0.52672 4.86352 -32.5933
LeftArm  11.2811 9.53973 -39.8587
LeftForeArm  18.5608 -21.7576 -4.3045
LeftHand  -0.0815992 10.0593 -0.674089
RightShoulder  -1.15888 -6.56473 31.3271
RightArm  19.3207 -7.93436 40.5703
RightForeArm  14.3361 12.8701 6.7322
RightHand  0.0391497 4.29943 0.187015
LeftUpLeg  1.24886 4.19748 -2.31415
LeftLeg  1.90557 2.52988 0.0920849
LeftFoot  -3.08554 -0.104574 1.70644
LeftToes  8.74931e-010 -1.05764e-010 1.2659e-011
9
root  86.7482 39.2282 -0.704868 -88.9242 -85.9746 89.5752
RightUpLeg  3.41734 -7.82024 -2.78512
RightLeg  5.58329 -0.582593 0.344119
RightFoot  -9.09582 0.00720177 -3.51815
RightToes  -4.65663e-010 0 -3.6325e-017
Spine  2.01359 -0.283941 0.179665
Spine1  4.33085 0.141119 -1.6478
HEad  -16.0319 1.13063 -2.8223
LeftShoulder1  -0.498813 4.79321 -32.5412
LeftArm  10.9495 9.76593 -39.8265
LeftForeArm  19.3488 -22.0644 -4.19239
LeftHand  -0.0590245 7.7638 -0.711883
RightShoulder  -1.17814 -6.60342 31.4781
RightArm  19.4682 -8.01089 40.7173
RightForeArm  14.7878 12.8382 6.76833
RightHand  0.0599847 4.69474 0.401783
LeftUpLeg  0.726451 4.00999 -2.38391
LeftLeg  2.83143 2.57046 0.108658
LeftFoot  -3.74831 -0.0666942 1.34245
LeftToes  8.74931e-010 -1.05764e-010 1.2659e-011
10
root  86.6932 39.1499 -0.796825 -88.9964 -86.0239 89.6545
RightUpLeg  3.29029 -7.77972 -2.51698
RightLeg  6.06757 -0.619939 0.261695
RightFoot  -9.6839 -0.00782102 -3.93177
RightToes  -4.65663e-010 0 -3.6325e-017
Spine  2.03979 -0.197785 0.517137
Spine1  4.644 0.274922 -1.62301
HEad  -16.3431 0.984367 -2.89018
LeftShoulder1  -0.498779 4.79774 -32.4035
LeftArm  10.9991 9.86294 -39.8618
LeftForeArm  19.1445 -22.9803 -4.0391
LeftHand  -0.0550001 7.8325 -0.48022
RightShoulder  -1.17729 -6.60102 31.4801
RightArm  18.9608 -7.57641 41.3418
RightForeArm  14.744 12.3209 6.91253
RightHand  0.0451294 4.01073 0.255307
LeftUpLeg  -0.237235 4.04281 -2.11157
LeftLeg  5.04308 2.48604 0.141688
LeftFoot  -5.03466 -0.0256376 1.01887
LeftToes  8.74931e-010 -1.05764e-010 1.2659e-011
11
root  86.7239 39.023 -0.809994 -97.0561 -86.2415 98.2929
RightUpLeg  1.72118 -7.89672 -2.24036
RightLeg  7.89864 0.255404 0.328478
RightFoot  -10.758 -0.0547263 -3.70859
RightToes  -4.65663e-010 0 -3.6325e-017
Spine  2.2205 0.143277 2.1953
Spine1  4.38419 0.874357 -2.39164
HEad  -16.7079 0.645981 -3.22199
LeftShoulder1  -0.521763 4.85096 -32.5843
LeftArm  11.0473 9.73882 -39.8165
LeftForeArm  19.37 -24.1406 -4.13979
LeftHand  -0.0571665 9.35398 -0.365025
RightShoulder  -1.1741 -6.61058 31.2626
RightArm  18.2891 -7.19306 42.3001
RightForeArm  14.4809 12.0876 6.91525
RightHand  -0.0163857 2.68569 -0.428895
LeftUpLeg  -2.69756 4.06662 -1.92943
LeftLeg  8.74644 2.98589 0.462826
LeftFoot  -6.48805 0.00534336 0.800966
LeftToes  8.74931e-010 -1.05764e-010 1.2659e-011
12
root  86.7124 38.8387 -0.85176 -87.9212 -86.6898 89.0816
RightUpLeg  1.25907 -8.33478 -1.90327
RightLeg  9.3824 0.0838904 0.679511
RightFoot  -12.1088 -0.106233 -3.84949
RightToes  -4.65663e-010 0 -3.6325e-017
Spine  2.99276 0.139776 3.55801
Spine1  4.11466 1.0039 -2.48766
HEad  -16.7346 -0.338407 -3.22332
LeftShoulder1  -0.547954 4.91515 -32.6797
LeftArm  10.9844 10.1768 -39.7138
LeftForeArm  19.56 -25.9655 -4.52765
LeftHand  -0.00301054 10.8348 1.18753
RightShoulder  -1.16346 -6.58143 31.2696
RightArm  18.274 -6.36257 43.0448
RightForeArm  13.9649 11.6709 7.14714
RightHand  -0.025236 3.36833 -0.578321
LeftUpLeg  -5.8666 3.87415 -1.50615
LeftLeg  15.0996 2.38213 1.02004
LeftFoot  -7.79469 0.0421246 0.082187
LeftToes  8.74931e-010 -1.05764e-010 1.2659e-011
